<?xml version="1.0" encoding="utf-8"?>
<!-- Generator: Adobe Illustrator 23.0.1, SVG Export Plug-In . SVG Version: 6.00 Build 0)  -->
<svg version="1.1" id="Layer_1" xmlns="http://www.w3.org/2000/svg" xmlns:xlink="http://www.w3.org/1999/xlink" x="0px" y="0px"
	 viewBox="0 0 256 256" style="enable-background:new 0 0 256 256;" xml:space="preserve">
<style type="text/css">
	.st0{fill:#AAAAAA;stroke:#000000;stroke-miterlimit:10;}
</style>
<path class="st0" d="M90.08,228H65.92c-8.28,0-15-6.72-15-15V43c0-8.28,6.72-15,15-15h24.16c8.28,0,15,6.72,15,15v170
	C105.08,221.28,98.36,228,90.08,228z"/>
<path class="st0" d="M190.08,228h-24.16c-8.28,0-15-6.72-15-15V43c0-8.28,6.72-15,15-15h24.16c8.28,0,15,6.72,15,15v170
	C205.08,221.28,198.36,228,190.08,228z"/>
</svg>
