<?xml version="1.0" encoding="utf-8"?>
<!-- Generator: Adobe Illustrator 23.0.1, SVG Export Plug-In . SVG Version: 6.00 Build 0)  -->
<svg version="1.1" id="Layer_1" xmlns="http://www.w3.org/2000/svg" xmlns:xlink="http://www.w3.org/1999/xlink" x="0px" y="0px"
	 viewBox="0 0 256 256" style="enable-background:new 0 0 256 256;" xml:space="preserve">
<style type="text/css">
	.st0{fill:#C5B55A;}
	.st1{fill:none;stroke:#000000;stroke-miterlimit:10;}
</style>
<g>
	<path class="st0" d="M234.91,154.6c0.5-49.09,0.25-88.49,0-113.93c-0.04-4.13-0.26-12.64-7.2-19.25
		c-8.66-8.24-23.02-8.98-30.71-8.83c-52.06,0-146.19,0-146.19,0c-5.5,0-10,4.5-10,10v5.42c0,5.5,4.5,10,10,10c0,0,75.49,0,118.24,0
		c6.31-0.12,18.1,0.49,25.21,7.25c5.7,5.42,5.88,12.41,5.91,15.8c0.21,20.89,0.41,53.23,0,93.54"/>
	<path class="st1" d="M234.91,154.6c0.5-49.09,0.25-88.49,0-113.93c-0.04-4.13-0.26-12.64-7.2-19.25
		c-8.66-8.24-23.02-8.98-30.71-8.83c-52.06,0-146.19,0-146.19,0c-5.5,0-10,4.5-10,10v5.42c0,5.5,4.5,10,10,10c0,0,75.49,0,118.24,0
		c6.31-0.12,18.1,0.49,25.21,7.25c5.7,5.42,5.88,12.41,5.91,15.8c0.21,20.89,0.41,53.23,0,93.54"/>
</g>
<path class="st1" d="M228.77,11.03"/>
<path class="st1" d="M256,110.58"/>
<g>
	<path class="st0" d="M211.84,196.75c3.14,4.52,8.27,4.52,11.4,0l26.26-37.85c3.14-4.52,1.2-8.22-4.3-8.22l-55.31,0
		c-5.5,0-7.43,3.7-4.3,8.22L211.84,196.75z"/>
	<path class="st1" d="M211.84,196.75c3.14,4.52,8.27,4.52,11.4,0l26.26-37.85c3.14-4.52,1.2-8.22-4.3-8.22l-55.31,0
		c-5.5,0-7.43,3.7-4.3,8.22L211.84,196.75z"/>
</g>
<path class="st1" d="M137.1,188.46"/>
<g>
	<path class="st0" d="M21.09,102.17c-0.5,49.09-0.25,88.49,0,113.93c0.04,4.13,0.26,12.64,7.2,19.25
		c8.66,8.24,23.02,8.98,30.71,8.83c52.06,0,146.19,0,146.19,0c5.5,0,10-4.5,10-10v-5.42c0-5.5-4.5-10-10-10c0,0-75.49,0-118.24,0
		c-6.31,0.12-18.1-0.49-25.21-7.25c-5.7-5.42-5.88-12.41-5.91-15.8c-0.21-20.89-0.41-53.23,0-93.54"/>
	<path class="st1" d="M21.09,102.17c-0.5,49.09-0.25,88.49,0,113.93c0.04,4.13,0.26,12.64,7.2,19.25
		c8.66,8.24,23.02,8.98,30.71,8.83c52.06,0,146.19,0,146.19,0c5.5,0,10-4.5,10-10v-5.42c0-5.5-4.5-10-10-10c0,0-75.49,0-118.24,0
		c-6.31,0.12-18.1-0.49-25.21-7.25c-5.7-5.42-5.88-12.41-5.91-15.8c-0.21-20.89-0.41-53.23,0-93.54"/>
</g>
<path class="st1" d="M26.95,256"/>
<g>
	<path class="st0" d="M44.16,60.02c-3.14-4.52-8.27-4.52-11.4,0L6.5,97.87c-3.14,4.52-1.2,8.22,4.3,8.22l55.31,0
		c5.5,0,7.43-3.7,4.3-8.22L44.16,60.02z"/>
	<path class="st1" d="M44.16,60.02c-3.14-4.52-8.27-4.52-11.4,0L6.5,97.87c-3.14,4.52-1.2,8.22,4.3,8.22l55.31,0
		c5.5,0,7.43-3.7,4.3-8.22L44.16,60.02z"/>
</g>
<path class="st1" d="M90.38,119.94"/>
</svg>
