<?xml version="1.0" encoding="utf-8"?>
<!-- Generator: Adobe Illustrator 23.0.1, SVG Export Plug-In . SVG Version: 6.00 Build 0)  -->
<svg version="1.1" id="Layer_1" xmlns="http://www.w3.org/2000/svg" xmlns:xlink="http://www.w3.org/1999/xlink" x="0px" y="0px"
	 viewBox="0 0 256 256" style="enable-background:new 0 0 256 256;" xml:space="preserve">
<style type="text/css">
	.st0{fill:none;stroke:#000000;stroke-miterlimit:10;}
	.st1{fill:#C6B046;}
</style>
<path class="st0" d="M228.37,5.52"/>
<path class="st0" d="M255.6,105.07"/>
<g>
	<path class="st1" d="M215.98,135.5c-5.98-5.98-15.65-5.98-21.63,0c-5.98,5.98-5.98,15.65,0,21.63l5.5,5.5l-7.82-0.05
		c-15.93-0.74-30.53-8.95-39.37-22.32l-9.69-14.62l9.69-14.6c8.87-13.37,23.44-21.6,39.37-22.32l7.82-0.05l-5.5,5.5
		c-5.98,5.98-5.98,15.65,0,21.63c5.98,5.98,15.65,5.98,21.63,0c0,0,31.57-31.57,31.6-31.6c5.62-5.68,5.7-15.93,0-21.63l-32.11-32.14
		c-5.98-5.98-15.65-5.98-21.63,0c-5.98,5.98-5.98,15.65,0,21.63l6.01,6.01l-7.82-0.08c-12.5,0.36-24.85,3.66-35.87,9.56
		c-11.71,6.29-21.76,15.44-29.09,26.51L124.48,98l-2.58-3.91c-7.34-11.07-17.39-20.25-29.09-26.51c-11.71-6.29-24.9-9.61-38.17-9.61
		H15.31c-8.46,0-15.34,6.88-15.34,15.34s6.88,15.34,15.34,15.34h39.32c16.82,0,32.39,8.36,41.7,22.4l9.69,14.6l-9.69,14.6
		c-9.28,14.01-24.88,22.4-41.7,22.4H15.31c-8.46,0-15.34,6.88-15.34,15.34c0,8.46,6.88,15.34,15.34,15.34h39.32
		c13.27,0,26.49-3.32,38.17-9.61c11.71-6.29,21.76-15.44,29.09-26.51l2.58-3.91l2.58,3.91c7.34,11.07,17.39,20.25,29.09,26.51
		c11.02,5.91,23.37,9.2,35.87,9.56l7.82-0.08l-6.01,6.01c-5.98,5.98-5.98,15.65,0,21.63c5.98,5.98,15.65,5.98,21.63,0l32.11-32.11
		c5.7-5.7,5.65-15.95,0-21.63C247.56,167.08,215.98,135.5,215.98,135.5z"/>
</g>
</svg>
